<svg width="25" height="26" viewBox="0 0 25 26" fill="none" xmlns="http://www.w3.org/2000/svg">
<path d="M2.59115 6.83177C2.04116 6.88211 1.63612 7.36877 1.68646 7.91875C1.7368 8.46874 2.22346 8.87378 2.77345 8.82344L2.59115 6.83177ZM21.7591 7.08568C22.3091 7.03534 22.7141 6.54868 22.6638 5.99869C22.6135 5.44871 22.1268 5.04367 21.5768 5.09401L21.7591 7.08568ZM2.77345 8.82344L21.7591 7.08568L21.5768 5.09401L2.59115 6.83177L2.77345 8.82344Z" fill="#101828"/>
<path d="M11 3C11 3.55228 11.4477 4 12 4C12.5523 4 13 3.55228 13 3L11 3ZM13 1C13 0.447715 12.5523 -2.41411e-08 12 0C11.4477 2.41411e-08 11 0.447715 11 1L13 1ZM13 3L13 1L11 1L11 3L13 3Z" fill="#101828"/>
<path d="M1 19.6641V18.6641C0.720924 18.6641 0.454544 18.7807 0.26524 18.9857C0.0759351 19.1908 -0.0190703 19.4656 0.00318474 19.7438L1 19.6641ZM9.33333 19.6641L10.3301 19.7438C10.3524 19.4656 10.2574 19.1908 10.0681 18.9857C9.87879 18.7807 9.61241 18.6641 9.33333 18.6641V19.6641ZM1 20.6641H9.33333V18.6641H1V20.6641ZM8.33652 19.5843L8.30887 19.9299L10.3025 20.0893L10.3301 19.7438L8.33652 19.5843ZM2.02446 19.9299L1.99682 19.5843L0.00318474 19.7438L0.0308279 20.0893L2.02446 19.9299ZM5.16667 22.8307C3.52321 22.8307 2.15552 21.5681 2.02446 19.9299L0.0308279 20.0893C0.245038 22.767 2.48049 24.8307 5.16667 24.8307V22.8307ZM8.30887 19.9299C8.17782 21.5681 6.81012 22.8307 5.16667 22.8307V24.8307C7.85285 24.8307 10.0883 22.767 10.3025 20.0893L8.30887 19.9299Z" fill="#101828"/>
<path d="M0.903555 19.294C0.698441 19.8068 0.947857 20.3887 1.46064 20.5938C1.97342 20.799 2.55539 20.5495 2.76051 20.0368L0.903555 19.294ZM6.09384 11.7034C6.29895 11.1906 6.04954 10.6087 5.53676 10.4036C5.02397 10.1984 4.442 10.4479 4.23689 10.9606L6.09384 11.7034ZM2.76051 20.0368L6.09384 11.7034L4.23689 10.9606L0.903555 19.294L2.76051 20.0368Z" fill="#101828"/>
<path d="M9.42848 19.294C9.63359 19.8068 9.38417 20.3887 8.87139 20.5938C8.35861 20.799 7.77664 20.5495 7.57152 20.0368L9.42848 19.294ZM4.23819 11.7034C4.03308 11.1906 4.28249 10.6087 4.79528 10.4036C5.30806 10.1984 5.89003 10.4479 6.09514 10.9606L4.23819 11.7034ZM7.57152 20.0368L4.23819 11.7034L6.09514 10.9606L9.42848 19.294L7.57152 20.0368Z" fill="#101828"/>
<path d="M15 18.332V17.332C14.7209 17.332 14.4545 17.4487 14.2652 17.6537C14.0759 17.8588 13.9809 18.1336 14.0032 18.4118L15 18.332ZM23.3333 18.332L24.3301 18.4118C24.3524 18.1336 24.2574 17.8588 24.0681 17.6537C23.8788 17.4487 23.6124 17.332 23.3333 17.332V18.332ZM15 19.332H23.3333V17.332H15V19.332ZM22.3365 18.2523L22.3089 18.5978L24.3025 18.7573L24.3301 18.4118L22.3365 18.2523ZM16.0245 18.5978L15.9968 18.2523L14.0032 18.4118L14.0308 18.7573L16.0245 18.5978ZM19.1667 21.4987C17.5232 21.4987 16.1555 20.2361 16.0245 18.5978L14.0308 18.7573C14.245 21.4349 16.4805 23.4987 19.1667 23.4987V21.4987ZM22.3089 18.5978C22.1778 20.2361 20.8101 21.4987 19.1667 21.4987V23.4987C21.8528 23.4987 24.0883 21.4349 24.3025 18.7573L22.3089 18.5978Z" fill="#101828"/>
<path d="M14.9036 17.9619C14.6984 18.4747 14.9479 19.0567 15.4606 19.2618C15.9734 19.4669 16.5554 19.2175 16.7605 18.7047L14.9036 17.9619ZM20.0938 10.3714C20.299 9.85861 20.0495 9.27664 19.5368 9.07152C19.024 8.86641 18.442 9.11583 18.2369 9.62861L20.0938 10.3714ZM16.7605 18.7047L20.0938 10.3714L18.2369 9.62861L14.9036 17.9619L16.7605 18.7047Z" fill="#101828"/>
<path d="M23.4285 17.9619C23.6336 18.4747 23.3842 19.0567 22.8714 19.2618C22.3586 19.4669 21.7766 19.2175 21.5715 18.7047L23.4285 17.9619ZM18.2382 10.3714C18.0331 9.85861 18.2825 9.27664 18.7953 9.07152C19.3081 8.86641 19.89 9.11583 20.0951 9.62861L18.2382 10.3714ZM21.5715 18.7047L18.2382 10.3714L20.0951 9.62861L23.4285 17.9619L21.5715 18.7047Z" fill="#101828"/>
</svg>
