<svg width="21" height="20" viewBox="0 0 21 20" fill="none" xmlns="http://www.w3.org/2000/svg">
<path d="M17.168 5.83203H3.83464C2.91416 5.83203 2.16797 6.57822 2.16797 7.4987V15.832C2.16797 16.7525 2.91416 17.4987 3.83464 17.4987H17.168C18.0884 17.4987 18.8346 16.7525 18.8346 15.832V7.4987C18.8346 6.57822 18.0884 5.83203 17.168 5.83203Z" stroke="white" stroke-width="2" stroke-linecap="round" stroke-linejoin="round"/>
<path d="M13.8346 17.5V4.16667C13.8346 3.72464 13.659 3.30072 13.3465 2.98816C13.0339 2.67559 12.61 2.5 12.168 2.5H8.83464C8.39261 2.5 7.96869 2.67559 7.65612 2.98816C7.34356 3.30072 7.16797 3.72464 7.16797 4.16667V17.5" stroke="white" stroke-width="2" stroke-linecap="round" stroke-linejoin="round"/>
</svg>
