<svg width="24" height="18" viewBox="0 0 24 18" fill="none" xmlns="http://www.w3.org/2000/svg">
<path d="M23.7609 4.19688C23.7609 4.19688 23.5266 2.54219 22.8047 1.81563C21.8906 0.859375 20.8688 0.854687 20.4 0.798437C17.0438 0.554687 12.0047 0.554688 12.0047 0.554688H11.9953C11.9953 0.554688 6.95625 0.554687 3.6 0.798437C3.13125 0.854687 2.10938 0.859375 1.19531 1.81563C0.473438 2.54219 0.24375 4.19688 0.24375 4.19688C0.24375 4.19688 0 6.14219 0 8.08281V9.90156C0 11.8422 0.239062 13.7875 0.239062 13.7875C0.239062 13.7875 0.473437 15.4422 1.19062 16.1688C2.10469 17.125 3.30469 17.0922 3.83906 17.1953C5.76094 17.3781 12 17.4344 12 17.4344C12 17.4344 17.0438 17.425 20.4 17.1859C20.8688 17.1297 21.8906 17.125 22.8047 16.1688C23.5266 15.4422 23.7609 13.7875 23.7609 13.7875C23.7609 13.7875 24 11.8469 24 9.90156V8.08281C24 6.14219 23.7609 4.19688 23.7609 4.19688ZM9.52031 12.1094V5.36406L16.0031 8.74844L9.52031 12.1094Z" fill="#98A2B3"/>
</svg>
